<mxfile host="app.diagrams.net" modified="2024-07-19T01:53:27.405Z" agent="Mozilla/5.0 (Windows NT 10.0; Win64; x64) AppleWebKit/537.36 (KHTML, like Gecko) Chrome/126.0.0.0 Safari/537.36" version="24.7.1" etag="vQNZjunyq77JPExeTxWc" type="device">
  <diagram id="9aJ6VG_4qWcxqx4f6wC8" name="ページ1">
    <mxGraphModel dx="839" dy="468" grid="1" gridSize="10" guides="1" tooltips="1" connect="1" arrows="1" fold="1" page="1" pageScale="1" pageWidth="1169" pageHeight="827" math="0" shadow="0">
      <root>
        <mxCell id="0" />
        <mxCell id="1" parent="0" />
        <mxCell id="t29xWnEcKiahIYwdL2Hy-1" value="" style="shape=table;startSize=0;container=1;collapsible=0;childLayout=tableLayout;" vertex="1" parent="1">
          <mxGeometry x="230" y="90" width="120" height="130" as="geometry" />
        </mxCell>
        <mxCell id="t29xWnEcKiahIYwdL2Hy-2" value="" style="shape=tableRow;horizontal=0;startSize=0;swimlaneHead=0;swimlaneBody=0;strokeColor=inherit;top=0;left=0;bottom=0;right=0;collapsible=0;dropTarget=0;fillColor=none;points=[[0,0.5],[1,0.5]];portConstraint=eastwest;" vertex="1" parent="t29xWnEcKiahIYwdL2Hy-1">
          <mxGeometry width="120" height="40" as="geometry" />
        </mxCell>
        <mxCell id="t29xWnEcKiahIYwdL2Hy-3" value="プレイヤー" style="shape=partialRectangle;html=1;whiteSpace=wrap;connectable=0;strokeColor=inherit;overflow=hidden;fillColor=none;top=0;left=0;bottom=0;right=0;pointerEvents=1;" vertex="1" parent="t29xWnEcKiahIYwdL2Hy-2">
          <mxGeometry width="120" height="40" as="geometry">
            <mxRectangle width="120" height="40" as="alternateBounds" />
          </mxGeometry>
        </mxCell>
        <mxCell id="t29xWnEcKiahIYwdL2Hy-4" value="" style="shape=tableRow;horizontal=0;startSize=0;swimlaneHead=0;swimlaneBody=0;strokeColor=inherit;top=0;left=0;bottom=0;right=0;collapsible=0;dropTarget=0;fillColor=none;points=[[0,0.5],[1,0.5]];portConstraint=eastwest;" vertex="1" parent="t29xWnEcKiahIYwdL2Hy-1">
          <mxGeometry y="40" width="120" height="40" as="geometry" />
        </mxCell>
        <mxCell id="t29xWnEcKiahIYwdL2Hy-5" value="名前&lt;div&gt;パス回数&lt;span style=&quot;white-space: pre;&quot;&gt;&#x9;&lt;/span&gt;&lt;/div&gt;" style="shape=partialRectangle;html=1;whiteSpace=wrap;connectable=0;strokeColor=inherit;overflow=hidden;fillColor=none;top=0;left=0;bottom=0;right=0;pointerEvents=1;" vertex="1" parent="t29xWnEcKiahIYwdL2Hy-4">
          <mxGeometry width="120" height="40" as="geometry">
            <mxRectangle width="120" height="40" as="alternateBounds" />
          </mxGeometry>
        </mxCell>
        <mxCell id="t29xWnEcKiahIYwdL2Hy-6" value="" style="shape=tableRow;horizontal=0;startSize=0;swimlaneHead=0;swimlaneBody=0;strokeColor=inherit;top=0;left=0;bottom=0;right=0;collapsible=0;dropTarget=0;fillColor=none;points=[[0,0.5],[1,0.5]];portConstraint=eastwest;" vertex="1" parent="t29xWnEcKiahIYwdL2Hy-1">
          <mxGeometry y="80" width="120" height="50" as="geometry" />
        </mxCell>
        <mxCell id="t29xWnEcKiahIYwdL2Hy-7" value="カードを配る()&lt;div&gt;順番を指名する()&lt;/div&gt;&lt;div&gt;パス回数を数える()&lt;/div&gt;" style="shape=partialRectangle;html=1;whiteSpace=wrap;connectable=0;strokeColor=inherit;overflow=hidden;fillColor=none;top=0;left=0;bottom=0;right=0;pointerEvents=1;" vertex="1" parent="t29xWnEcKiahIYwdL2Hy-6">
          <mxGeometry width="120" height="50" as="geometry">
            <mxRectangle width="120" height="50" as="alternateBounds" />
          </mxGeometry>
        </mxCell>
        <mxCell id="t29xWnEcKiahIYwdL2Hy-8" value="" style="shape=table;startSize=0;container=1;collapsible=0;childLayout=tableLayout;" vertex="1" parent="1">
          <mxGeometry x="570" y="90" width="110" height="120" as="geometry" />
        </mxCell>
        <mxCell id="t29xWnEcKiahIYwdL2Hy-9" value="" style="shape=tableRow;horizontal=0;startSize=0;swimlaneHead=0;swimlaneBody=0;strokeColor=inherit;top=0;left=0;bottom=0;right=0;collapsible=0;dropTarget=0;fillColor=none;points=[[0,0.5],[1,0.5]];portConstraint=eastwest;" vertex="1" parent="t29xWnEcKiahIYwdL2Hy-8">
          <mxGeometry width="110" height="40" as="geometry" />
        </mxCell>
        <mxCell id="t29xWnEcKiahIYwdL2Hy-10" value="進行役" style="shape=partialRectangle;html=1;whiteSpace=wrap;connectable=0;strokeColor=inherit;overflow=hidden;fillColor=none;top=0;left=0;bottom=0;right=0;pointerEvents=1;" vertex="1" parent="t29xWnEcKiahIYwdL2Hy-9">
          <mxGeometry width="110" height="40" as="geometry">
            <mxRectangle width="110" height="40" as="alternateBounds" />
          </mxGeometry>
        </mxCell>
        <mxCell id="t29xWnEcKiahIYwdL2Hy-11" value="" style="shape=tableRow;horizontal=0;startSize=0;swimlaneHead=0;swimlaneBody=0;strokeColor=inherit;top=0;left=0;bottom=0;right=0;collapsible=0;dropTarget=0;fillColor=none;points=[[0,0.5],[1,0.5]];portConstraint=eastwest;" vertex="1" parent="t29xWnEcKiahIYwdL2Hy-8">
          <mxGeometry y="40" width="110" height="20" as="geometry" />
        </mxCell>
        <mxCell id="t29xWnEcKiahIYwdL2Hy-12" value="" style="shape=partialRectangle;html=1;whiteSpace=wrap;connectable=0;strokeColor=inherit;overflow=hidden;fillColor=none;top=0;left=0;bottom=0;right=0;pointerEvents=1;" vertex="1" parent="t29xWnEcKiahIYwdL2Hy-11">
          <mxGeometry width="110" height="20" as="geometry">
            <mxRectangle width="110" height="20" as="alternateBounds" />
          </mxGeometry>
        </mxCell>
        <mxCell id="t29xWnEcKiahIYwdL2Hy-13" value="" style="shape=tableRow;horizontal=0;startSize=0;swimlaneHead=0;swimlaneBody=0;strokeColor=inherit;top=0;left=0;bottom=0;right=0;collapsible=0;dropTarget=0;fillColor=none;points=[[0,0.5],[1,0.5]];portConstraint=eastwest;" vertex="1" parent="t29xWnEcKiahIYwdL2Hy-8">
          <mxGeometry y="60" width="110" height="60" as="geometry" />
        </mxCell>
        <mxCell id="t29xWnEcKiahIYwdL2Hy-14" value="&lt;div&gt;ゲームを準備する()&lt;/div&gt;ゲームを開始する()&lt;div&gt;パスを宣言する()&lt;/div&gt;&lt;div&gt;上がりを宣言する()&lt;br&gt;&lt;/div&gt;" style="shape=partialRectangle;html=1;whiteSpace=wrap;connectable=0;strokeColor=inherit;overflow=hidden;fillColor=none;top=0;left=0;bottom=0;right=0;pointerEvents=1;" vertex="1" parent="t29xWnEcKiahIYwdL2Hy-13">
          <mxGeometry width="110" height="60" as="geometry">
            <mxRectangle width="110" height="60" as="alternateBounds" />
          </mxGeometry>
        </mxCell>
        <mxCell id="t29xWnEcKiahIYwdL2Hy-15" value="" style="shape=table;startSize=0;container=1;collapsible=0;childLayout=tableLayout;" vertex="1" parent="1">
          <mxGeometry x="245" y="314" width="90" height="100" as="geometry" />
        </mxCell>
        <mxCell id="t29xWnEcKiahIYwdL2Hy-16" value="" style="shape=tableRow;horizontal=0;startSize=0;swimlaneHead=0;swimlaneBody=0;strokeColor=inherit;top=0;left=0;bottom=0;right=0;collapsible=0;dropTarget=0;fillColor=none;points=[[0,0.5],[1,0.5]];portConstraint=eastwest;" vertex="1" parent="t29xWnEcKiahIYwdL2Hy-15">
          <mxGeometry width="90" height="40" as="geometry" />
        </mxCell>
        <mxCell id="t29xWnEcKiahIYwdL2Hy-17" value="テーブル" style="shape=partialRectangle;html=1;whiteSpace=wrap;connectable=0;strokeColor=inherit;overflow=hidden;fillColor=none;top=0;left=0;bottom=0;right=0;pointerEvents=1;" vertex="1" parent="t29xWnEcKiahIYwdL2Hy-16">
          <mxGeometry width="90" height="40" as="geometry">
            <mxRectangle width="90" height="40" as="alternateBounds" />
          </mxGeometry>
        </mxCell>
        <mxCell id="t29xWnEcKiahIYwdL2Hy-18" value="" style="shape=tableRow;horizontal=0;startSize=0;swimlaneHead=0;swimlaneBody=0;strokeColor=inherit;top=0;left=0;bottom=0;right=0;collapsible=0;dropTarget=0;fillColor=none;points=[[0,0.5],[1,0.5]];portConstraint=eastwest;" vertex="1" parent="t29xWnEcKiahIYwdL2Hy-15">
          <mxGeometry y="40" width="90" height="20" as="geometry" />
        </mxCell>
        <mxCell id="t29xWnEcKiahIYwdL2Hy-19" value="" style="shape=partialRectangle;html=1;whiteSpace=wrap;connectable=0;strokeColor=inherit;overflow=hidden;fillColor=none;top=0;left=0;bottom=0;right=0;pointerEvents=1;" vertex="1" parent="t29xWnEcKiahIYwdL2Hy-18">
          <mxGeometry width="90" height="20" as="geometry">
            <mxRectangle width="90" height="20" as="alternateBounds" />
          </mxGeometry>
        </mxCell>
        <mxCell id="t29xWnEcKiahIYwdL2Hy-20" value="" style="shape=tableRow;horizontal=0;startSize=0;swimlaneHead=0;swimlaneBody=0;strokeColor=inherit;top=0;left=0;bottom=0;right=0;collapsible=0;dropTarget=0;fillColor=none;points=[[0,0.5],[1,0.5]];portConstraint=eastwest;" vertex="1" parent="t29xWnEcKiahIYwdL2Hy-15">
          <mxGeometry y="60" width="90" height="40" as="geometry" />
        </mxCell>
        <mxCell id="t29xWnEcKiahIYwdL2Hy-21" value="カードを置く()&lt;div&gt;カードを見る()&lt;br&gt;&lt;/div&gt;" style="shape=partialRectangle;html=1;whiteSpace=wrap;connectable=0;strokeColor=inherit;overflow=hidden;fillColor=none;top=0;left=0;bottom=0;right=0;pointerEvents=1;" vertex="1" parent="t29xWnEcKiahIYwdL2Hy-20">
          <mxGeometry width="90" height="40" as="geometry">
            <mxRectangle width="90" height="40" as="alternateBounds" />
          </mxGeometry>
        </mxCell>
        <mxCell id="t29xWnEcKiahIYwdL2Hy-22" value="" style="shape=table;startSize=0;container=1;collapsible=0;childLayout=tableLayout;" vertex="1" parent="1">
          <mxGeometry x="420" y="300" width="100" height="170" as="geometry" />
        </mxCell>
        <mxCell id="t29xWnEcKiahIYwdL2Hy-23" value="" style="shape=tableRow;horizontal=0;startSize=0;swimlaneHead=0;swimlaneBody=0;strokeColor=inherit;top=0;left=0;bottom=0;right=0;collapsible=0;dropTarget=0;fillColor=none;points=[[0,0.5],[1,0.5]];portConstraint=eastwest;" vertex="1" parent="t29xWnEcKiahIYwdL2Hy-22">
          <mxGeometry width="100" height="40" as="geometry" />
        </mxCell>
        <mxCell id="t29xWnEcKiahIYwdL2Hy-24" value="手札" style="shape=partialRectangle;html=1;whiteSpace=wrap;connectable=0;strokeColor=inherit;overflow=hidden;fillColor=none;top=0;left=0;bottom=0;right=0;pointerEvents=1;" vertex="1" parent="t29xWnEcKiahIYwdL2Hy-23">
          <mxGeometry width="100" height="40" as="geometry">
            <mxRectangle width="100" height="40" as="alternateBounds" />
          </mxGeometry>
        </mxCell>
        <mxCell id="t29xWnEcKiahIYwdL2Hy-25" value="" style="shape=tableRow;horizontal=0;startSize=0;swimlaneHead=0;swimlaneBody=0;strokeColor=inherit;top=0;left=0;bottom=0;right=0;collapsible=0;dropTarget=0;fillColor=none;points=[[0,0.5],[1,0.5]];portConstraint=eastwest;" vertex="1" parent="t29xWnEcKiahIYwdL2Hy-22">
          <mxGeometry y="40" width="100" height="40" as="geometry" />
        </mxCell>
        <mxCell id="t29xWnEcKiahIYwdL2Hy-26" value="カードの枚数" style="shape=partialRectangle;html=1;whiteSpace=wrap;connectable=0;strokeColor=inherit;overflow=hidden;fillColor=none;top=0;left=0;bottom=0;right=0;pointerEvents=1;" vertex="1" parent="t29xWnEcKiahIYwdL2Hy-25">
          <mxGeometry width="100" height="40" as="geometry">
            <mxRectangle width="100" height="40" as="alternateBounds" />
          </mxGeometry>
        </mxCell>
        <mxCell id="t29xWnEcKiahIYwdL2Hy-27" value="" style="shape=tableRow;horizontal=0;startSize=0;swimlaneHead=0;swimlaneBody=0;strokeColor=inherit;top=0;left=0;bottom=0;right=0;collapsible=0;dropTarget=0;fillColor=none;points=[[0,0.5],[1,0.5]];portConstraint=eastwest;" vertex="1" parent="t29xWnEcKiahIYwdL2Hy-22">
          <mxGeometry y="80" width="100" height="90" as="geometry" />
        </mxCell>
        <mxCell id="t29xWnEcKiahIYwdL2Hy-28" value="カードを加える()&lt;div&gt;カードを引く()&lt;/div&gt;&lt;div&gt;カードを見る()&lt;/div&gt;&lt;div&gt;枚数を数える()&lt;/div&gt;&lt;div&gt;シャッフルする()&lt;/div&gt;" style="shape=partialRectangle;html=1;whiteSpace=wrap;connectable=0;strokeColor=inherit;overflow=hidden;fillColor=none;top=0;left=0;bottom=0;right=0;pointerEvents=1;" vertex="1" parent="t29xWnEcKiahIYwdL2Hy-27">
          <mxGeometry width="100" height="90" as="geometry">
            <mxRectangle width="100" height="90" as="alternateBounds" />
          </mxGeometry>
        </mxCell>
        <mxCell id="t29xWnEcKiahIYwdL2Hy-29" value="" style="shape=table;startSize=0;container=1;collapsible=0;childLayout=tableLayout;" vertex="1" parent="1">
          <mxGeometry x="660" y="359" width="90" height="110" as="geometry" />
        </mxCell>
        <mxCell id="t29xWnEcKiahIYwdL2Hy-30" value="" style="shape=tableRow;horizontal=0;startSize=0;swimlaneHead=0;swimlaneBody=0;strokeColor=inherit;top=0;left=0;bottom=0;right=0;collapsible=0;dropTarget=0;fillColor=none;points=[[0,0.5],[1,0.5]];portConstraint=eastwest;" vertex="1" parent="t29xWnEcKiahIYwdL2Hy-29">
          <mxGeometry width="90" height="37" as="geometry" />
        </mxCell>
        <mxCell id="t29xWnEcKiahIYwdL2Hy-31" value="カード" style="shape=partialRectangle;html=1;whiteSpace=wrap;connectable=0;strokeColor=inherit;overflow=hidden;fillColor=none;top=0;left=0;bottom=0;right=0;pointerEvents=1;" vertex="1" parent="t29xWnEcKiahIYwdL2Hy-30">
          <mxGeometry width="90" height="37" as="geometry">
            <mxRectangle width="90" height="37" as="alternateBounds" />
          </mxGeometry>
        </mxCell>
        <mxCell id="t29xWnEcKiahIYwdL2Hy-32" value="" style="shape=tableRow;horizontal=0;startSize=0;swimlaneHead=0;swimlaneBody=0;strokeColor=inherit;top=0;left=0;bottom=0;right=0;collapsible=0;dropTarget=0;fillColor=none;points=[[0,0.5],[1,0.5]];portConstraint=eastwest;" vertex="1" parent="t29xWnEcKiahIYwdL2Hy-29">
          <mxGeometry y="37" width="90" height="36" as="geometry" />
        </mxCell>
        <mxCell id="t29xWnEcKiahIYwdL2Hy-33" value="数&lt;div&gt;スート&lt;/div&gt;" style="shape=partialRectangle;html=1;whiteSpace=wrap;connectable=0;strokeColor=inherit;overflow=hidden;fillColor=none;top=0;left=0;bottom=0;right=0;pointerEvents=1;" vertex="1" parent="t29xWnEcKiahIYwdL2Hy-32">
          <mxGeometry width="90" height="36" as="geometry">
            <mxRectangle width="90" height="36" as="alternateBounds" />
          </mxGeometry>
        </mxCell>
        <mxCell id="t29xWnEcKiahIYwdL2Hy-34" value="" style="shape=tableRow;horizontal=0;startSize=0;swimlaneHead=0;swimlaneBody=0;strokeColor=inherit;top=0;left=0;bottom=0;right=0;collapsible=0;dropTarget=0;fillColor=none;points=[[0,0.5],[1,0.5]];portConstraint=eastwest;" vertex="1" parent="t29xWnEcKiahIYwdL2Hy-29">
          <mxGeometry y="73" width="90" height="37" as="geometry" />
        </mxCell>
        <mxCell id="t29xWnEcKiahIYwdL2Hy-35" value="数を見る()&lt;div&gt;スートを見る()&lt;/div&gt;" style="shape=partialRectangle;html=1;whiteSpace=wrap;connectable=0;strokeColor=inherit;overflow=hidden;fillColor=none;top=0;left=0;bottom=0;right=0;pointerEvents=1;" vertex="1" parent="t29xWnEcKiahIYwdL2Hy-34">
          <mxGeometry width="90" height="37" as="geometry">
            <mxRectangle width="90" height="37" as="alternateBounds" />
          </mxGeometry>
        </mxCell>
        <mxCell id="t29xWnEcKiahIYwdL2Hy-36" style="edgeStyle=orthogonalEdgeStyle;rounded=0;orthogonalLoop=1;jettySize=auto;html=1;exitX=1;exitY=0.5;exitDx=0;exitDy=0;endArrow=none;endFill=0;" edge="1" parent="1" source="t29xWnEcKiahIYwdL2Hy-2" target="t29xWnEcKiahIYwdL2Hy-9">
          <mxGeometry relative="1" as="geometry" />
        </mxCell>
        <mxCell id="t29xWnEcKiahIYwdL2Hy-38" style="edgeStyle=orthogonalEdgeStyle;rounded=0;orthogonalLoop=1;jettySize=auto;html=1;exitX=0;exitY=0.5;exitDx=0;exitDy=0;entryX=0;entryY=0.5;entryDx=0;entryDy=0;endArrow=none;endFill=0;" edge="1" parent="1" source="t29xWnEcKiahIYwdL2Hy-6" target="t29xWnEcKiahIYwdL2Hy-16">
          <mxGeometry relative="1" as="geometry" />
        </mxCell>
        <mxCell id="t29xWnEcKiahIYwdL2Hy-39" style="edgeStyle=orthogonalEdgeStyle;rounded=0;orthogonalLoop=1;jettySize=auto;html=1;exitX=1;exitY=0.5;exitDx=0;exitDy=0;endArrow=none;endFill=0;" edge="1" parent="1" source="t29xWnEcKiahIYwdL2Hy-6" target="t29xWnEcKiahIYwdL2Hy-23">
          <mxGeometry relative="1" as="geometry" />
        </mxCell>
        <mxCell id="t29xWnEcKiahIYwdL2Hy-40" style="edgeStyle=orthogonalEdgeStyle;rounded=0;orthogonalLoop=1;jettySize=auto;html=1;exitX=0;exitY=0.5;exitDx=0;exitDy=0;endArrow=none;endFill=0;" edge="1" parent="1" source="t29xWnEcKiahIYwdL2Hy-13" target="t29xWnEcKiahIYwdL2Hy-23">
          <mxGeometry relative="1" as="geometry" />
        </mxCell>
        <mxCell id="t29xWnEcKiahIYwdL2Hy-42" style="edgeStyle=orthogonalEdgeStyle;rounded=0;orthogonalLoop=1;jettySize=auto;html=1;exitX=1;exitY=0.5;exitDx=0;exitDy=0;endArrow=none;endFill=0;" edge="1" parent="1" source="t29xWnEcKiahIYwdL2Hy-25" target="t29xWnEcKiahIYwdL2Hy-30">
          <mxGeometry relative="1" as="geometry" />
        </mxCell>
        <mxCell id="t29xWnEcKiahIYwdL2Hy-43" value="" style="endArrow=none;html=1;rounded=0;" edge="1" parent="1">
          <mxGeometry width="50" height="50" relative="1" as="geometry">
            <mxPoint x="200" y="110" as="sourcePoint" />
            <mxPoint x="230" y="110" as="targetPoint" />
          </mxGeometry>
        </mxCell>
        <mxCell id="t29xWnEcKiahIYwdL2Hy-44" value="" style="endArrow=none;html=1;rounded=0;" edge="1" parent="1">
          <mxGeometry width="50" height="50" relative="1" as="geometry">
            <mxPoint x="200" y="110" as="sourcePoint" />
            <mxPoint x="200" y="70" as="targetPoint" />
          </mxGeometry>
        </mxCell>
        <mxCell id="t29xWnEcKiahIYwdL2Hy-45" value="" style="endArrow=none;html=1;rounded=0;" edge="1" parent="1">
          <mxGeometry width="50" height="50" relative="1" as="geometry">
            <mxPoint x="200" y="70" as="sourcePoint" />
            <mxPoint x="240" y="70" as="targetPoint" />
          </mxGeometry>
        </mxCell>
        <mxCell id="t29xWnEcKiahIYwdL2Hy-46" value="" style="endArrow=none;html=1;rounded=0;" edge="1" parent="1">
          <mxGeometry width="50" height="50" relative="1" as="geometry">
            <mxPoint x="240" y="90" as="sourcePoint" />
            <mxPoint x="240" y="70" as="targetPoint" />
          </mxGeometry>
        </mxCell>
        <mxCell id="t29xWnEcKiahIYwdL2Hy-47" value="対戦相手" style="text;html=1;align=center;verticalAlign=middle;resizable=0;points=[];autosize=1;strokeColor=none;fillColor=none;" vertex="1" parent="1">
          <mxGeometry x="155" y="38" width="70" height="30" as="geometry" />
        </mxCell>
        <mxCell id="t29xWnEcKiahIYwdL2Hy-48" value="ゲームを進める" style="text;html=1;align=center;verticalAlign=middle;resizable=0;points=[];autosize=1;strokeColor=none;fillColor=none;" vertex="1" parent="1">
          <mxGeometry x="390" y="80" width="110" height="30" as="geometry" />
        </mxCell>
        <mxCell id="t29xWnEcKiahIYwdL2Hy-49" value="カードを置く" style="text;html=1;align=center;verticalAlign=middle;resizable=0;points=[];autosize=1;strokeColor=none;fillColor=none;" vertex="1" parent="1">
          <mxGeometry x="120" y="250" width="100" height="30" as="geometry" />
        </mxCell>
        <mxCell id="t29xWnEcKiahIYwdL2Hy-50" value="持っている" style="text;html=1;align=center;verticalAlign=middle;resizable=0;points=[];autosize=1;strokeColor=none;fillColor=none;" vertex="1" parent="1">
          <mxGeometry x="380" y="180" width="80" height="30" as="geometry" />
        </mxCell>
        <mxCell id="t29xWnEcKiahIYwdL2Hy-51" value="持っている" style="text;html=1;align=center;verticalAlign=middle;resizable=0;points=[];autosize=1;strokeColor=none;fillColor=none;" vertex="1" parent="1">
          <mxGeometry x="550" y="220" width="80" height="30" as="geometry" />
        </mxCell>
        <mxCell id="t29xWnEcKiahIYwdL2Hy-52" value="構成する" style="text;html=1;align=center;verticalAlign=middle;resizable=0;points=[];autosize=1;strokeColor=none;fillColor=none;" vertex="1" parent="1">
          <mxGeometry x="560" y="329" width="70" height="30" as="geometry" />
        </mxCell>
      </root>
    </mxGraphModel>
  </diagram>
</mxfile>
